HIERARCHY
ROOT Hips
{
	OFFSET 0.000000 0.000000 0.000000
	CHANNELS 6 Xposition Yposition Zposition Xrotation Yrotation Zrotation
	JOINT LeftUpLeg_virtual
	{
		OFFSET 0.000000 0.000000 0.000000
		CHANNELS 3 Xrotation Yrotation Zrotation
		JOINT LeftUpLeg
		{
			OFFSET 13.026900 -6.336304 -1.092800
			CHANNELS 3 Xrotation Yrotation Zrotation
			JOINT LeftLeg
			{
				OFFSET 0.524474 -46.096886 9.782700
				CHANNELS 3 Xrotation Yrotation Zrotation
				JOINT LeftFoot
				{
					OFFSET -0.524474 -53.427422 -12.948200
					CHANNELS 3 Xrotation Yrotation Zrotation
					JOINT LeftToeBase
					{
						OFFSET 0.192200 -14.009700 16.364100
						CHANNELS 3 Xrotation Yrotation Zrotation
						JOINT LeftToe_End
						{
							OFFSET -1.784700 -0.561700 9.474800
							CHANNELS 3 Xrotation Yrotation Zrotation
							End Site
							{
								OFFSET 0 0 0
							}
						}
					}
				}
			}
		}
	}
	JOINT RightUpLeg_virtual
	{
		OFFSET 0.000000 0.000000 0.000000
		CHANNELS 3 Xrotation Yrotation Zrotation
		JOINT RightUpLeg
		{
			OFFSET -12.883000 -6.336304 -1.092800
			CHANNELS 3 Xrotation Yrotation Zrotation
			JOINT RightLeg
			{
				OFFSET -0.524587 -46.096825 9.782800
				CHANNELS 3 Xrotation Yrotation Zrotation
				JOINT RightFoot
				{
					OFFSET 0.524587 -53.427383 -12.948300
					CHANNELS 3 Xrotation Yrotation Zrotation
					JOINT RightToeBase
					{
						OFFSET -0.192200 -14.009700 16.364100
						CHANNELS 3 Xrotation Yrotation Zrotation
						JOINT RightToe_End
						{
							OFFSET 1.784700 -0.561700 9.474800
							CHANNELS 3 Xrotation Yrotation Zrotation
							End Site
							{
								OFFSET 0 0 0
							}
						}
					}
				}
			}
		}
	}
	JOINT Spine_virtual
	{
		OFFSET 0.000000 0.000000 0.000000
		CHANNELS 3 Xrotation Yrotation Zrotation
		JOINT Spine
		{
			OFFSET 0.072000 7.257294 -0.789700
			CHANNELS 3 Xrotation Yrotation Zrotation
			JOINT Spine1
			{
				OFFSET 0.000000 12.508769 -0.658067
				CHANNELS 3 Xrotation Yrotation Zrotation
				JOINT Spine1_split
				{
					OFFSET 0.000000 12.508769 -0.658067
					CHANNELS 3 Xrotation Yrotation Zrotation
					JOINT Spine2
					{
						OFFSET 0.000000 12.508769 -0.658067
						CHANNELS 3 Xrotation Yrotation Zrotation
						JOINT Neck_virtual
						{
							OFFSET 0.000000 0.000000 0.000000
							CHANNELS 3 Xrotation Yrotation Zrotation
							JOINT Neck
							{
								OFFSET 0.000000 14.033295 7.520400
								CHANNELS 3 Xrotation Yrotation Zrotation
								JOINT Head
								{
									OFFSET 0.000000 8.198502 5.703100
									CHANNELS 3 Xrotation Yrotation Zrotation
									JOINT HeadTop_End
									{
										OFFSET 0.000000 17.760803 13.332701
										CHANNELS 3 Xrotation Yrotation Zrotation
										End Site
										{
											OFFSET 0 0 0
										}
									}
								}
							}
						}
						JOINT LeftShoulder_virtual
						{
							OFFSET 0.000000 0.000000 0.000000
							CHANNELS 3 Xrotation Yrotation Zrotation
							JOINT LeftShoulder
							{
								OFFSET 6.292450 5.785301 -0.669000
								CHANNELS 3 Xrotation Yrotation Zrotation
								JOINT LeftShoulder_split
								{
									OFFSET 6.292450 5.785301 -0.669000
									CHANNELS 3 Xrotation Yrotation Zrotation
									JOINT LeftArm
									{
										OFFSET 13.907140 -6.093903 1.965100
										CHANNELS 3 Xrotation Yrotation Zrotation
										JOINT LeftForeArm
										{
											OFFSET 34.140198 0.000000 0.000000
											CHANNELS 3 Xrotation Yrotation Zrotation
											JOINT LeftHand
											{
												OFFSET 40.960209 0.000000 0.000000
												CHANNELS 3 Xrotation Yrotation Zrotation
												End Site
												{
													OFFSET 0 0 0
												}
											}
										}
									}
								}
							}
						}
						JOINT RightShoulder_virtual
						{
							OFFSET 0.000000 0.000000 0.000000
							CHANNELS 3 Xrotation Yrotation Zrotation
							JOINT RightShoulder
							{
								OFFSET -6.292450 5.785301 -0.669000
								CHANNELS 3 Xrotation Yrotation Zrotation
								JOINT RightShoulder_split
								{
									OFFSET -6.292450 5.785301 -0.669000
									CHANNELS 3 Xrotation Yrotation Zrotation
									JOINT RightArm
									{
										OFFSET -13.907140 -6.093903 1.965100
										CHANNELS 3 Xrotation Yrotation Zrotation
										JOINT RightForeArm
										{
											OFFSET -34.140198 0.000000 0.000000
											CHANNELS 3 Xrotation Yrotation Zrotation
											JOINT RightHand
											{
												OFFSET -40.960209 0.000000 0.000000
												CHANNELS 3 Xrotation Yrotation Zrotation
												End Site
												{
													OFFSET 0 0 0
												}
											}
										}
									}
								}
							}
						}
					}
				}
			}
		}
	}
}
MOTION
Frames: 4
Frame Time: 0.03333333
-1.984336 107.042099 13.862034 0.000000 0.000000 0.000000 0.309488 4.918535 2.899274 -36.659398 -1.421931 0.440108 38.192434 -2.586520 2.362407 -2.107106 -1.960078 -13.216503 -1.852289 1.038247 -3.529865 0.000000 0.000000 0.000000 1.334325 6.453634 3.112050 -23.168171 7.514074 -0.656101 42.483790 7.252928 -3.140082 -17.499440 -3.819478 4.657351 -2.804004 0.956811 -3.990846 0.000000 0.000000 0.000000 1.865088 3.033299 1.384002 3.032299 -2.336518 -2.296239 1.407828 18.746129 -6.336284 0.354461 -0.985634 0.129682 0.000000 0.000000 0.000000 2.307978 21.622902 -6.084768 -16.382255 -2.894536 4.941768 -161.523387 -50.100995 170.637346 0.000000 0.000000 0.000000 -0.965926 20.606595 -5.917155 11.995302 -10.499310 1.161819 4.234053 -13.038089 -0.454958 -24.334064 7.014863 -53.316819 -100.242800 37.815172 -53.166565 0.000000 0.000000 0.000000 -2.279998 19.094948 -6.732074 9.564159 12.209638 -6.323799 9.178550 -0.371418 2.493789 -36.772420 16.799492 71.568163 -33.391309 43.539136 19.761494 0.000000 0.000000 0.000000 
-2.413337 107.874786 14.350346 0.000000 0.000000 0.000000 0.845706 8.227996 2.950452 -36.551614 -1.630856 0.401489 35.961038 -3.712654 3.285036 -1.777549 -3.086280 -15.931543 -0.430887 0.543110 -2.545114 0.000000 0.000000 0.000000 2.021177 9.726679 3.122099 -22.490717 6.687757 -0.615343 40.116676 6.431283 -2.668889 -16.585540 -4.271106 5.097272 -2.201939 1.039778 -3.532125 0.000000 0.000000 0.000000 2.075098 6.152489 1.529674 2.013975 -1.870082 -2.388467 1.499882 18.923587 -6.673034 0.448011 -0.871351 0.099151 0.000000 0.000000 0.000000 2.273536 21.676558 -6.314305 -15.533452 -5.594983 5.297274 -164.626738 -49.138109 168.034880 0.000000 0.000000 0.000000 -0.937254 20.771012 -6.262027 12.158701 -10.637143 0.526761 3.111651 -13.648573 0.086337 -22.060418 7.716915 -53.769291 -99.485496 37.993013 -52.183362 0.000000 0.000000 0.000000 -2.457833 19.115601 -7.127127 9.648875 12.513464 -7.294785 10.776352 -0.799655 2.813291 -37.241473 17.479965 73.317942 -32.267207 42.740909 18.917391 0.000000 0.000000 0.000000 
-2.537741 108.717270 14.891148 0.000000 0.000000 0.000000 1.584793 11.848399 2.923685 -36.394506 -1.385707 0.658442 33.904581 -4.378744 4.090691 -1.193557 -4.133896 -18.009430 0.596091 -0.031291 -1.631081 0.000000 0.000000 0.000000 2.770420 13.411179 3.098898 -21.437493 5.505454 -0.852282 38.267067 5.399541 -2.182567 -16.145396 -4.885204 5.601913 -1.499716 1.182849 -3.127572 0.000000 0.000000 0.000000 2.387111 9.512260 1.689652 0.508775 -1.153824 -2.067114 1.803556 18.866463 -6.728427 0.482519 -0.785188 0.001083 0.000000 0.000000 0.000000 2.188159 21.504559 -6.125079 -13.947052 -7.877007 4.327690 -166.787769 -48.368924 166.243335 0.000000 0.000000 0.000000 -0.914593 20.656748 -6.378423 12.390370 -11.387695 -0.128074 1.714032 -13.742445 0.521547 -19.372266 8.799845 -55.436698 -99.275270 38.008965 -51.050490 0.000000 0.000000 0.000000 -2.406656 18.964855 -7.068450 9.723726 12.759189 -8.629569 12.704052 -1.229913 2.777127 -37.169650 18.071089 74.060848 -31.867269 43.011303 19.031765 0.000000 0.000000 0.000000 
-2.289577 109.471832 15.333126 0.000000 0.000000 0.000000 2.482145 15.867580 2.750786 -36.061913 -0.827412 1.328093 32.554130 -4.379223 4.700812 -0.518966 -4.809916 -19.245699 0.861271 -0.628143 -0.924526 0.000000 0.000000 0.000000 3.411968 17.140315 3.000492 -20.075704 4.058523 -1.233684 36.976336 4.259378 -1.741184 -16.504510 -5.590132 6.039227 -0.479144 1.397261 -2.838682 0.000000 0.000000 0.000000 2.806282 13.106860 1.757736 -1.362920 -0.345020 -1.288655 2.318256 18.541915 -6.473062 0.486720 -0.750690 -0.079462 0.000000 0.000000 0.000000 2.141162 21.050809 -5.525313 -11.908604 -9.429598 2.087880 -167.286059 -48.042936 165.866418 0.000000 0.000000 0.000000 -0.839584 20.220367 -6.263310 12.637470 -12.733850 -0.441288 0.563851 -12.878650 0.785505 -16.582967 9.982567 -58.744428 -99.616868 37.849101 -50.105957 0.000000 0.000000 0.000000 -2.035260 18.655036 -6.570069 9.859647 12.977061 -10.353957 13.974005 -1.609273 2.930189 -36.421519 18.540306 73.516243 -32.145411 44.238094 20.114369 0.000000 0.000000 0.000000 
